<?xml version="1.0" encoding="UTF-8"?>
<svg version="1.1" xmlns="http://www.w3.org/2000/svg" width="650" height="650">
<path d="M0 0 C214.5 0 429 0 650 0 C650 214.5 650 429 650 650 C435.5 650 221 650 0 650 C0 435.5 0 221 0 0 Z " fill="#FDFDFD" transform="translate(0,0)"/>
<path d="M0 0 C24.42973551 9.39605212 49.60437497 68.40139653 59.80859375 90.91796875 C77.02875364 130.1938167 77.02875364 130.1938167 78 148 C78.63164062 147.53851563 79.26328125 147.07703125 79.9140625 146.6015625 C82.38067974 144.80313552 84.851333 143.01038104 87.32324219 141.21923828 C88.99329728 140.00487382 90.65689993 138.78203516 92.3203125 137.55859375 C100.59124101 131.51440796 109.09310791 126.05940304 118 121 C118.66805664 120.62004883 119.33611328 120.24009766 120.02441406 119.84863281 C122.02963357 118.71824416 124.04342154 117.60541726 126.0625 116.5 C126.66956787 116.16145996 127.27663574 115.82291992 127.90209961 115.47412109 C131.59071862 113.4958616 134.84165356 112.4557092 139 112 C139 111.34 139 110.68 139 110 C140.03447266 109.63648437 140.03447266 109.63648437 141.08984375 109.265625 C142.02957031 108.93046875 142.96929687 108.5953125 143.9375 108.25 C144.85402344 107.92515625 145.77054687 107.6003125 146.71484375 107.265625 C149.28900724 106.27391398 151.74885399 105.20787587 154.25 104.0546875 C159.07376043 101.88720508 163.98855771 100.34244467 169.0625 98.875 C169.90876953 98.62363281 170.75503906 98.37226562 171.62695312 98.11328125 C186.71436766 93.66964798 186.71436766 93.66964798 192 94 C193.12464567 100.34388055 193.17843602 106.58720286 193.203125 113.01953125 C193.20882507 114.19094162 193.21452515 115.36235199 193.22039795 116.56925964 C193.22983106 119.05470891 193.23637521 121.54017059 193.24023438 124.02563477 C193.24979789 127.73412765 193.28077708 131.44203104 193.3125 135.15039062 C193.47376977 171.32585718 188.08624542 209.5361337 171 242 C171.94536621 241.83918945 172.89073242 241.67837891 173.86474609 241.51269531 C178.62647793 240.83706733 183.36157091 240.81969667 188.1640625 240.796875 C189.14213364 240.78999664 190.12020477 240.78311829 191.12791443 240.77603149 C194.29364743 240.758851 197.45922276 240.75256868 200.625 240.75 C201.69958466 240.74832825 202.77416931 240.74665649 203.88131714 240.74493408 C245.19092531 240.74107744 245.19092531 240.74107744 262 246 C265.28383427 246.86448418 268.57982541 247.67993393 271.875 248.5 C272.72191406 248.71269531 273.56882812 248.92539063 274.44140625 249.14453125 C279.27465223 250.35099234 284.11205529 251.48205908 288.99047852 252.49169922 C292.17714024 253.29775312 295.02738378 254.60856262 298 256 C296.35516316 261.18123603 293.18543522 265.17759126 290 269.5 C289.12323608 270.69931152 289.12323608 270.69931152 288.22875977 271.92285156 C286.49381979 274.28792477 284.74938238 276.64559508 283 279 C282.30946533 279.93102539 282.30946533 279.93102539 281.60498047 280.88085938 C267.40480424 299.93134666 251.33406012 318.98435494 232.7265625 333.82421875 C231.0332923 335.17543867 229.357517 336.54929008 227.7109375 337.95703125 C220.43799959 344.09279158 212.38733445 348.86373792 204.21582031 353.68798828 C202.18422996 354.8909154 200.16531578 356.1124776 198.1484375 357.33984375 C190.99207506 361.63580676 183.98898655 364.61855467 176 367 C174.68217015 367.48577849 173.36898846 367.9844962 172.0625 368.5 C170.71009697 369.00475083 169.35574577 369.50429771 168 370 C166.71029297 370.47953125 166.71029297 370.47953125 165.39453125 370.96875 C129.30714714 383.29354871 88.4353688 378.50594415 54.4921875 362.328125 C34.46871075 352.38239229 16.35380318 336.92995618 3 319 C3 318.34 3 317.68 3 317 C-0.0046898 319.82258739 -2.55025161 322.68275966 -5 326 C-13.94860436 337.61004273 -24.82340364 346.93408864 -37 355 C-37.67047363 355.44504883 -38.34094727 355.89009766 -39.03173828 356.34863281 C-48.87789222 362.76690096 -58.67683837 367.10208023 -69.94433594 370.39160156 C-71.84071785 370.95285854 -73.7221212 371.56407874 -75.6015625 372.1796875 C-88.69514819 376.46088378 -101.08973656 377.32455652 -114.76318359 377.26074219 C-117.49469193 377.25002083 -120.2255428 377.26068957 -122.95703125 377.2734375 C-141.29943801 377.28761118 -141.29943801 377.28761118 -150 375 C-150.33 374.67 -150.66 374.34 -151 374 C-152.45521255 373.77088143 -153.91458791 373.56822375 -155.375 373.375 C-180.71873835 368.90450919 -205.203433 353.84771414 -225 338 C-226.02738281 337.17757813 -227.05476563 336.35515625 -228.11328125 335.5078125 C-244.42283072 322.11302675 -259.39238373 306.6669115 -272.5625 290.1875 C-273.06064209 289.56439941 -273.55878418 288.94129883 -274.07202148 288.29931641 C-278.34663174 282.90681223 -282.47456322 277.40993747 -286.5625 271.875 C-287.45594116 270.66686646 -287.45594116 270.66686646 -288.36743164 269.43432617 C-296 259.02468308 -296 259.02468308 -296 256 C-282.86636766 250.68158938 -282.86636766 250.68158938 -276.09765625 249.45703125 C-273.87181847 249.01744143 -273.87181847 249.01744143 -271.30297852 248.04980469 C-267.88403517 246.96314223 -264.59484417 246.31871685 -261.0546875 245.74609375 C-260.40355988 245.64031509 -259.75243225 245.53453644 -259.08157349 245.42555237 C-257.7087482 245.20385203 -256.33551775 244.98464758 -254.96191406 244.76782227 C-252.90047392 244.44153208 -250.84086486 244.10517544 -248.78125 243.76757812 C-234.13998267 241.39808726 -219.85714873 240.83915499 -205.0456543 240.86962891 C-201.94119395 240.87499362 -198.83687786 240.8696554 -195.73242188 240.86328125 C-193.72656219 240.86394205 -191.72070259 240.86522325 -189.71484375 240.8671875 C-188.34718117 240.86415115 -188.34718117 240.86415115 -186.95188904 240.86105347 C-180.58904216 240.88380921 -174.32682937 241.33263602 -168 242 C-168.36762451 241.00895264 -168.73524902 240.01790527 -169.11401367 238.99682617 C-179.1455294 211.88811992 -186.65154846 186.86056674 -190 158 C-190.10675049 157.13487793 -190.21350098 156.26975586 -190.32348633 155.37841797 C-191.25181272 146.87551032 -191.18608838 138.33752608 -191.18530273 129.79443359 C-191.18748968 127.13753232 -191.20570568 124.48104701 -191.22460938 121.82421875 C-191.25483023 112.33752706 -190.88237702 103.33189743 -189 94 C-181.09947158 94.44620925 -173.97419997 96.66793909 -166.51586914 99.12817383 C-164.44183556 99.81107247 -162.36308474 100.47773211 -160.28320312 101.14257812 C-154.31993018 103.070478 -148.45316317 104.99166654 -142.91772461 107.97436523 C-140.57998446 109.22463212 -138.19078294 110.33136958 -135.78515625 111.4453125 C-113.84811049 121.68756971 -93.85061357 133.7476517 -75 149 C-74.96132813 148.05253906 -74.96132813 148.05253906 -74.921875 147.0859375 C-73.54116457 125.30836839 -63.32177433 99.34652116 -52.39453125 80.5625 C-51.03823816 78.07026396 -49.95125762 75.52879248 -48.85522461 72.91455078 C-47.24432598 69.30830841 -45.30211772 65.8821857 -43.375 62.4375 C-42.93478516 61.64956055 -42.49457031 60.86162109 -42.04101562 60.04980469 C-35.46878312 48.39988609 -28.04348979 37.43559405 -20.18017578 26.62548828 C-19.07072744 25.09741483 -17.97058524 23.56259701 -16.87109375 22.02734375 C-12.98466204 16.61980374 -8.96016468 11.36068957 -4.76171875 6.19140625 C-3.12790215 4.1590978 -1.55141446 2.09560292 0 0 Z " fill="#3A689B" transform="translate(329,6)"/>
<path d="M0 0 C3.7331529 1.47580269 5.24920067 3.38649286 7.43359375 6.70703125 C8.39773193 8.16061035 8.39773193 8.16061035 9.38134766 9.64355469 C10.05987793 10.68930664 10.7384082 11.73505859 11.4375 12.8125 C12.49396729 14.4217334 12.49396729 14.4217334 13.57177734 16.06347656 C39 54.97662325 39 54.97662325 39 62 C39.66 62 40.32 62 41 62 C42.0063655 64.43504509 43.00526413 66.87270864 44 69.3125 C44.28617187 70.00279297 44.57234375 70.69308594 44.8671875 71.40429688 C46.08910744 74.41545674 47 76.71886984 47 80 C47.66 80 48.32 80 49 80 C57.92874769 105.64789341 57.92874769 105.64789341 61.0625 118.6875 C61.26576904 119.51596436 61.46903809 120.34442871 61.6784668 121.19799805 C62.83310953 126.23978256 63.35625368 130.82583943 63 136 C61 138.5 61 138.5 58 141 C47.94995414 150.50339065 40.47883211 161.4536808 33 173 C32.61602051 173.5892627 32.23204102 174.17852539 31.83642578 174.78564453 C27.86268688 180.916108 24.31257938 186.87050558 21.88671875 193.78125 C21 196 21 196 19.5793457 198.26977539 C17.93919926 201.1051066 16.88864054 203.8008784 15.84375 206.90234375 C15.46234863 208.03309326 15.08094727 209.16384277 14.68798828 210.32885742 C14.29595215 211.51970947 13.90391602 212.71056152 13.5 213.9375 C13.0963623 215.15864502 12.69272461 216.37979004 12.27685547 217.63793945 C9.64719409 225.71722095 7.41271989 233.61515175 6 242 C5.61738771 244.18452665 5.22896549 246.36781148 4.83349609 248.55004883 C4.57577265 249.9818281 4.32692268 251.41524246 4.08837891 252.8503418 C3.22185728 257.77814272 3.22185728 257.77814272 1 260 C-0.29407552 257.41184895 -0.4792984 255.05807215 -0.875 252.1875 C-6.73053381 213.55782729 -24.72040188 177.77773379 -49.75 148.0625 C-50.19762695 147.53092285 -50.64525391 146.9993457 -51.10644531 146.45166016 C-53.23749342 143.95436288 -55.30979743 141.73941072 -57.828125 139.62109375 C-60.25073079 136.69740942 -60.5604254 135.07317921 -60.31005859 131.3203125 C-59.68797212 126.66495045 -58.80372765 122.08989422 -57.8125 117.5 C-57.58691406 116.44208252 -57.36132812 115.38416504 -57.12890625 114.29418945 C-54.58147757 102.65650919 -51.44075126 91.50381 -46.2578125 80.73046875 C-44.33639878 76.55944952 -42.78897867 72.25580079 -41.2109375 67.9453125 C-40.03306255 65.08041666 -38.59539985 62.64820178 -37 60 C-35.98979455 57.6710669 -34.9906792 55.33730596 -34 53 C-24.93597151 33.94112528 -12.89426993 16.63476985 0 0 Z " fill="#FBFCFD" transform="translate(329,34)"/>
<path d="M0 0 C0.89309875 -0.00361542 1.78619751 -0.00723083 2.70635986 -0.01095581 C17.95141612 -0.03566942 33.39311672 0.44353891 48 5.3125 C49.5859375 7.47265625 49.5859375 7.47265625 51.375 10.375 C54.82832084 15.71137009 58.55389295 20.69288086 62.5625 25.625 C63.09214355 26.28185791 63.62178711 26.93871582 64.16748047 27.61547852 C74.36194653 40.05184854 87.09416213 51.24356473 103 55.3125 C103.99 55.3125 104.98 55.3125 106 55.3125 C104.948125 54.590625 103.89625 53.86875 102.8125 53.125 C88.68970541 42.47666284 76.50489283 27.77338134 68 12.3125 C68 11.6525 68 10.9925 68 10.3125 C73.24505604 10.73777481 77.43597247 12.73772129 82.12109375 14.9609375 C84.21623741 15.94454633 86.33291534 16.88267485 88.4609375 17.79296875 C103.648927 24.31408124 117.74157487 32.92349747 131.57421875 41.91796875 C153.28444669 56.21615064 153.28444669 56.21615064 178 63.3125 C178 63.9725 178 64.6325 178 65.3125 C175.97521036 65.77429413 173.94925345 66.23120025 171.91992188 66.67260742 C169.87050722 67.12173082 167.82517741 67.58971034 165.78320312 68.0715332 C156.84690336 70.05649349 148.36641446 70.78439082 139.22094727 70.70361328 C137.06657405 70.68753041 134.91408276 70.70357201 132.75976562 70.72265625 C119.82814166 70.74388245 107.13648565 69.18181049 95.125 64.125 C90.69738835 62.11416087 90.69738835 62.11416087 86 61.3125 C108.54989548 80.75481271 132.07704467 82.90693258 161 82.3125 C157.97050095 85.52525797 154.45061382 87.54795516 150.625 89.6875 C149.5585022 90.28522217 149.5585022 90.28522217 148.47045898 90.89501953 C142.19462045 94.33758094 135.7771939 97.00478795 129 99.3125 C127.73349609 99.75529297 127.73349609 99.75529297 126.44140625 100.20703125 C92.99218429 111.65760808 56.05355474 108.21656358 24.40380859 93.05297852 C12.51094532 87.17348607 1.59990644 80.28155423 -9 72.3125 C-9.84949219 71.67828125 -10.69898438 71.0440625 -11.57421875 70.390625 C-28.12855418 57.58495726 -43.43189022 42.03756679 -56 25.3125 C-56.46100098 24.70277344 -56.92200195 24.09304688 -57.39697266 23.46484375 C-58.93913904 21.41978632 -60.47145353 19.36775395 -62 17.3125 C-62.49395264 16.6525 -62.98790527 15.9925 -63.49682617 15.3125 C-67 10.54644597 -67 10.54644597 -67 8.3125 C-45.16088272 0.7936449 -22.91052279 0.07186554 0 0 Z " fill="#FAFBFC" transform="translate(126,261.6875)"/>
<path d="M0 0 C0.95355377 -0.00331329 1.90710754 -0.00662659 2.88955688 -0.01004028 C22.34091076 -0.04993257 41.80722529 0.66675603 60 8.3125 C59.43190138 12.39693321 57.11440437 15.11801695 54.625 18.25 C54.17801758 18.81992676 53.73103516 19.38985352 53.27050781 19.97705078 C32.14924669 46.72035949 8.7844546 71.23317304 -21.54296875 87.45703125 C-24.22299805 88.89546506 -26.78826234 90.40777507 -29.375 92 C-35.70447569 95.5313098 -42.87692274 97.43810086 -49.765625 99.59082031 C-51.2230919 100.06156683 -52.67203421 100.55984592 -54.109375 101.08886719 C-80.34913346 110.62950929 -117.33064608 107.73484104 -142.68261719 96.41601562 C-150.72505537 92.58628316 -158.5864222 88.2548852 -166 83.3125 C-166 82.6525 -166 81.9925 -166 81.3125 C-164.75089844 81.47363281 -163.50179688 81.63476562 -162.21484375 81.80078125 C-156.65930495 82.41468296 -151.14752102 82.49631352 -145.5625 82.5 C-144.58990234 82.51224609 -143.61730469 82.52449219 -142.61523438 82.53710938 C-121.2645606 82.5798963 -103.40654367 73.19722016 -87 60.3125 C-90.3 60.9725 -93.6 61.6325 -97 62.3125 C-97 62.9725 -97 63.6325 -97 64.3125 C-118.22064143 72.20017238 -142.85681109 73.7737813 -165 69.3125 C-166.35137649 69.05630853 -167.70295022 68.80115595 -169.0546875 68.546875 C-179.55678875 66.53410562 -179.55678875 66.53410562 -182 65.3125 C-182 64.6525 -182 63.9925 -182 63.3125 C-181.34257812 63.18875 -180.68515625 63.065 -180.0078125 62.9375 C-163.04148696 59.25916384 -148.44885689 50.5830227 -134 41.3125 C-132.07462805 40.08659651 -130.14882771 38.86136565 -128.22265625 37.63671875 C-125.31935549 35.79059298 -122.41756047 33.94246008 -119.52246094 32.08349609 C-105.2273787 22.92004914 -105.2273787 22.92004914 -99 22.3125 C-99 21.6525 -99 20.9925 -99 20.3125 C-95.93781474 19.02008628 -92.87519622 17.72870235 -89.8125 16.4375 C-88.51602539 15.89029297 -88.51602539 15.89029297 -87.19335938 15.33203125 C-85.5227387 14.62793824 -83.85106023 13.92634866 -82.17822266 13.22753906 C-80.49110422 12.51880561 -78.81212602 11.79067814 -77.13671875 11.0546875 C-75 10.3125 -75 10.3125 -71 10.3125 C-78.59206951 26.01338814 -93.89656908 49.27424526 -111 55.3125 C-111 55.9725 -111 56.6325 -111 57.3125 C-104.15091186 55.58619295 -98.78175582 53.32760821 -93 49.3125 C-92.01 48.673125 -91.02 48.03375 -90 47.375 C-73.99292463 36.80428985 -62.80749719 22.5684997 -52.59375 6.578125 C-50.84750851 4.09572288 -50.01994679 3.52131317 -47.1003418 2.92358398 C-31.38543869 0.53479088 -15.87040577 0.00799747 0 0 Z " fill="#FAFBFC" transform="translate(541,261.6875)"/>
<path d="M0 0 C0.05036807 5.34870106 0.08616419 10.69725675 0.10986328 16.04614258 C0.11976843 17.85638846 0.13329622 19.66661905 0.15087891 21.47680664 C0.31561818 38.9052529 -1.36044304 55.786719 -4 73 C-4.66 73 -5.32 73 -6 73 C-5.97035156 74.010625 -5.94070313 75.02125 -5.91015625 76.0625 C-6.29657803 92.99785474 -14.99001041 110.82698381 -22.05126953 125.93652344 C-23.01902126 127.95884311 -23.01902126 127.95884311 -23.69482422 129.96582031 C-25.07843642 133.27978759 -26.29817836 134.66734236 -29.59082031 136.22802734 C-32.90959722 137.35512987 -36.23501591 138.29767621 -39.625 139.1875 C-41.90997888 139.82279141 -44.19385466 140.46206487 -46.4765625 141.10546875 C-47.57991943 141.41403809 -48.68327637 141.72260742 -49.82006836 142.04052734 C-54.34143869 143.40474887 -58.66577714 145.13427493 -63 147 C-63.81952148 147.34836914 -64.63904297 147.69673828 -65.48339844 148.05566406 C-68.97941149 149.55351281 -72.34215101 151.139584 -75.625 153.0625 C-78.42801777 154.67163983 -81.18920789 155.93371536 -84.15673828 157.18920898 C-93.0698716 161.1098071 -101.31838443 166.49886038 -109.421875 171.8515625 C-110.07340546 172.28172668 -110.72493591 172.71189087 -111.39620972 173.15509033 C-114.71497976 175.3513015 -118.02380193 177.56124595 -121.32275391 179.78710938 C-122.55626172 180.61075704 -123.78982069 181.4343281 -125.0234375 182.2578125 C-125.88337311 182.84618393 -125.88337311 182.84618393 -126.76068115 183.44644165 C-128.13470956 184.35936723 -129.5634685 185.18897323 -131 186 C-131.66 185.67 -132.32 185.34 -133 185 C-132.2265625 184.14019531 -131.453125 183.28039062 -130.65625 182.39453125 C-117.0970856 167.10227339 -106.04058317 149.03854015 -100.59863281 129.17871094 C-100.18800054 127.68422381 -99.7565123 126.19535729 -99.30761719 124.71191406 C-95.84687547 112.94351902 -94.83224161 101.7839206 -95.07421875 89.58203125 C-95.09302597 88.47421799 -95.11183319 87.36640472 -95.13121033 86.22502136 C-95.23991689 80.57738413 -95.42468225 74.94482591 -95.71166992 69.3034668 C-96.28699847 53.93128921 -96.28699847 53.93128921 -92.81665039 48.72363281 C-89.99551141 46.39014332 -87.23574482 44.69873925 -84 43 C-82.56671365 41.93863052 -81.15159921 40.85198283 -79.76171875 39.734375 C-71.55655755 33.66263536 -63.13137285 28.05999611 -54.375 22.8125 C-53.46322998 22.25981445 -52.55145996 21.70712891 -51.61206055 21.13769531 C-46.44070834 18.10317498 -41.89872754 16.12062073 -36 15 C-36 14.34 -36 13.68 -36 13 C-35.09636719 12.72285156 -34.19273437 12.44570312 -33.26171875 12.16015625 C-32.08222656 11.79792969 -30.90273438 11.43570313 -29.6875 11.0625 C-28.51574219 10.70285156 -27.34398437 10.34320313 -26.13671875 9.97265625 C-24.08446023 9.33627721 -22.03839863 8.67946621 -20 8 C-20 7.34 -20 6.68 -20 6 C-17.23113877 4.99422987 -14.46015896 3.99519853 -11.6875 3 C-10.90181641 2.71382813 -10.11613281 2.42765625 -9.30664062 2.1328125 C-8.54931641 1.86210938 -7.79199219 1.59140625 -7.01171875 1.3125 C-6.31522217 1.06113281 -5.61872559 0.80976562 -4.90112305 0.55078125 C-3 0 -3 0 0 0 Z " fill="#FBFBFC" transform="translate(506,118)"/>
<path d="M0 0 C1.41487722 0.29912362 2.82884583 0.60254662 4.24243164 0.90771484 C5.4236837 1.1604567 5.4236837 1.1604567 6.62879944 1.41830444 C9.55855165 2.13702215 12.29971013 3.15206027 15.10107422 4.25878906 C16.86923854 4.94895966 18.67055731 5.55246777 20.47265625 6.1484375 C32.28797286 10.18544448 42.75574112 16.22142026 53.49365234 22.53320312 C55.53291181 23.72664467 57.58026006 24.89758132 59.64453125 26.046875 C72.15513997 33.08095219 84.82874306 41.82874306 95 52 C95.21359253 54.04208374 95.21359253 54.04208374 95.16357422 56.59130859 C95.15051239 57.54766205 95.13745056 58.5040155 95.12399292 59.48934937 C95.10112213 60.53184845 95.07825134 61.57434753 95.0546875 62.6484375 C95.02933603 64.87499312 95.00461869 67.10155603 94.98046875 69.328125 C94.93141862 72.8228254 94.87612631 76.31713905 94.80810547 79.81152344 C94.05909751 120.87131427 106.63995834 153.47019742 134 184 C130.34181222 184 129.11293131 183.02957855 126.0546875 181.0703125 C125.06855469 180.44455322 124.08242188 179.81879395 123.06640625 179.17407227 C122.01324219 178.49787842 120.96007812 177.82168457 119.875 177.125 C117.68587025 175.73934479 115.49576124 174.35523548 113.3046875 172.97265625 C112.22799805 172.29219238 111.15130859 171.61172852 110.04199219 170.91064453 C99.49866976 164.28849033 88.79168204 158.21610624 77.5859375 152.7890625 C75.09912976 151.57837978 72.70583812 150.27052971 70.3203125 148.87109375 C67.65559772 147.3694486 65.40244076 146.29848523 62.5 145.4375 C59.82541287 144.63412588 57.44221965 143.73834264 54.90234375 142.546875 C51.89666979 141.22639569 49.01265049 140.5457174 45.78515625 139.95703125 C29.78864349 136.89740719 29.78864349 136.89740719 25.99609375 131.54296875 C24.1603652 128.20802059 22.86823503 124.71884893 21.70166016 121.1015625 C20.5965043 117.79147843 19.12332677 114.68006503 17.6875 111.5 C15.94605889 107.34588846 14.22726942 103.18988313 12.70703125 98.94921875 C12.19037139 97.52483605 11.64148303 96.11202759 11.07421875 94.70703125 C7.97997656 86.81014289 6.17511277 78.77350538 4.51757812 70.48095703 C4.01566786 68.07510227 3.44339377 65.69564674 2.859375 63.30859375 C-1.81053546 42.61571063 -0.35520082 21.07297146 0 0 Z " fill="#FBFBFC" transform="translate(155,119)"/>
<path d="M0 0 C1.4606285 2.64738916 2 3.89448334 2 7 C2.66 7 3.32 7 4 7 C4.268125 7.90878906 4.53625 8.81757813 4.8125 9.75390625 C8.85439957 22.71723546 14.35311414 33.98510343 22.6875 44.75 C23.13883301 45.33467041 23.59016602 45.91934082 24.05517578 46.52172852 C26.73143069 49.83834144 29.27817226 51.96648872 33 54 C33.78375 54.825 34.5675 55.65 35.375 56.5 C38.48549375 59.462375 41.00916515 60.51321839 45 62 C45 62.66 45 63.32 45 64 C31.99571124 62.69139233 21.34816191 54.42951213 13.05078125 44.71875 C9 39.50655594 9 39.50655594 9 37 C8.34 37 7.68 37 7 37 C7 72.64 7 108.28 7 145 C7.66 145 8.32 145 9 145 C9.04898438 144.443125 9.09796875 143.88625 9.1484375 143.3125 C10.21820493 132.39349453 13.61135832 123.00610303 18 113 C18.27457031 112.32324219 18.54914063 111.64648438 18.83203125 110.94921875 C24.69850244 96.89465159 34.95311767 82.77260398 49 76 C51.21875 76.39453125 51.21875 76.39453125 53 77 C52.35933594 77.556875 51.71867187 78.11375 51.05859375 78.6875 C36.00541308 91.9683986 27.98494144 106.08138928 22 125 C21.77715332 125.67369629 21.55430664 126.34739258 21.32470703 127.04150391 C17.21086363 139.4797593 14.94240501 152.06364773 13 165 C12.88700562 165.74266113 12.77401123 166.48532227 12.65759277 167.25048828 C8.74305821 193.00930206 5.88759873 218.6831354 4.4175415 244.70028687 C4.19912414 248.4406708 3.93100731 252.17609908 3.59106445 255.9074707 C3.49399956 257.01032158 3.49399956 257.01032158 3.39497375 258.13545227 C3 260 3 260 1 262 C0.92483154 260.7625 0.84966309 259.525 0.7722168 258.25 C-2.11282598 208.62767714 -2.11282598 208.62767714 -12.23657227 160.05688477 C-15.75668204 147.84378358 -15.75668204 147.84378358 -13.75485229 140.87281799 C-10.56792439 128.74400302 -10.72734605 116.25404598 -10.8046875 103.81640625 C-10.80842841 102.02180643 -10.81127027 100.22720454 -10.81326294 98.43260193 C-10.82081468 93.76217782 -10.84038801 89.09188273 -10.8626709 84.42150879 C-10.88331408 79.63453922 -10.89230372 74.84754834 -10.90234375 70.06054688 C-10.92364391 60.70697529 -10.95767452 51.35349847 -11 42 C-11.53870728 42.68892838 -12.07741455 43.37785675 -12.63244629 44.08766174 C-13.34477417 44.99016159 -14.05710205 45.89266144 -14.79101562 46.82250977 C-15.4947229 47.71768814 -16.19843018 48.61286652 -16.92346191 49.53517151 C-22.70205973 56.39430529 -31.38022794 61.64915308 -40 64 C-41.32 64 -42.64 64 -44 64 C-44 63.34 -44 62.68 -44 62 C-43.02160156 61.56300781 -43.02160156 61.56300781 -42.0234375 61.1171875 C-36.22555171 58.39782514 -32.3449363 55.67080652 -28 51 C-27.34 51 -26.68 51 -26 51 C-25.75507813 50.44957031 -25.51015625 49.89914062 -25.2578125 49.33203125 C-23.73888445 46.51588205 -21.86484411 44.19387159 -19.875 41.6875 C-10.19930016 29.01628807 -4.86636505 15.08066252 0 0 Z " fill="#39689B" transform="translate(330,379)"/>
<path d="M0 0 C0.63233415 35.43341145 0.63233415 35.43341145 -3 49 C-3.19867676 49.78197754 -3.39735352 50.56395508 -3.60205078 51.36962891 C-9.67602034 74.89659266 -21.02406809 94.66828508 -38 112 C-38.75796875 112.79664063 -39.5159375 113.59328125 -40.296875 114.4140625 C-43.62091459 117.8505696 -46.67078125 120.83539062 -51 123 C-50.24963759 117.4546388 -48.6985977 112.22837842 -47.125 106.875 C-46.5782652 104.97950141 -46.03268245 103.08367013 -45.48828125 101.1875 C-45.22869629 100.28386719 -44.96911133 99.38023437 -44.70166016 98.44921875 C-42.68200398 91.39939594 -41.03707759 84.47345974 -39.98364258 77.2175293 C-37.79820293 62.18128797 -20.94457964 0 0 0 Z " fill="#F5F7FA" transform="translate(395,184)"/>
<path d="M0 0 C16.21165768 7.70755952 26.86496218 33.32077063 32.82373047 49.19433594 C34.49553692 54.06009323 35.76430422 59.00904734 37 64 C37.25797363 65.00240723 37.51594727 66.00481445 37.78173828 67.03759766 C38.64013249 70.37568741 39.47998463 73.71786707 40.3125 77.0625 C40.5796582 78.12178711 40.84681641 79.18107422 41.12207031 80.27246094 C42.50425833 86.00699331 43.30447749 91.10163365 43 97 C43.66 97 44.32 97 45 97 C46.17117205 100.79029008 47.33617215 104.58244902 48.5 108.375 C48.83386719 109.45523438 49.16773438 110.53546875 49.51171875 111.6484375 C49.82753906 112.6796875 50.14335937 113.7109375 50.46875 114.7734375 C50.76201172 115.72653809 51.05527344 116.67963867 51.35742188 117.66162109 C52 120 52 120 52 122 C33.51231328 114.10785072 17.76273348 87.79260426 10.35986328 70.11376953 C9.17166515 67.10024644 8.08814328 64.05080663 7 61 C6.53851563 59.86304688 6.07703125 58.72609375 5.6015625 57.5546875 C-1.64755673 39.15952367 -0.2480725 19.41644341 0 0 Z " fill="#F6F8FA" transform="translate(266,186)"/>
<path d="M0 0 C-0.96099609 0.8353125 -0.96099609 0.8353125 -1.94140625 1.6875 C-6.84955269 6.01778717 -11.36915468 10.32676873 -15.4296875 15.46875 C-17.28020616 17.27323586 -18.50632849 17.49148659 -21 18 C-21.99 18.66 -22.98 19.32 -24 20 C-24 15.48667919 -23.19601259 14.7090841 -20.13867188 11.63354492 C-19.59791016 11.1151001 -19.05714844 10.59665527 -18.5 10.0625 C-17.95408203 9.53052002 -17.40816406 8.99854004 -16.84570312 8.45043945 C-5.89616351 -2.00417839 -5.89616351 -2.00417839 0 0 Z " fill="#416EA2" transform="translate(383,456)"/>
<path d="M0 0 C0.33 0 0.66 0 1 0 C1.99 14.19 2.98 28.38 4 43 C4.33 43 4.66 43 5 43 C5 46.63 5 50.26 5 54 C4.01 54 3.02 54 2 54 C1.70998514 48.72072682 1.42542245 43.44119531 1.14550781 38.16137695 C1.04993309 36.37223746 0.95297129 34.58317143 0.85449219 32.79418945 C0.25307438 21.84899903 -0.15039579 10.96322658 0 0 Z " fill="#B4C6D8" transform="translate(328,596)"/>
<path d="M0 0 C0 3 0 3 -1.0625 5.0625 C-1.371875 5.701875 -1.68125 6.34125 -2 7 C-1.67 7.66 -1.34 8.32 -1 9 C-4.01447835 11.57075841 -6.35979771 12.52207066 -10.25 13.1875 C-11.14203125 13.34605469 -12.0340625 13.50460937 -12.953125 13.66796875 C-13.62859375 13.77753906 -14.3040625 13.88710938 -15 14 C-15 13.34 -15 12.68 -15 12 C-13.29870251 10.64482856 -11.53714076 9.36477042 -9.75 8.125 C-6.17222208 5.63569949 -2.99144726 3.17663209 0 0 Z " fill="#4A72A5" transform="translate(445,305)"/>
<path d="M0 0 C1.66666667 1.66666667 3.33333333 3.33333333 5 5 C7.29222685 6.22252099 9.5565384 7.08969078 12 8 C12 8.66 12 9.32 12 10 C4.83292123 9.67422369 -0.76927124 6.34556372 -7 3 C-4.49955934 -0.00052879 -4.2621484 0 0 0 Z " fill="#587BA9" transform="translate(363,433)"/>
<path d="M0 0 C-1.59987856 1.31772362 -3.20505966 2.62901137 -4.8125 3.9375 C-5.70582031 4.66839844 -6.59914063 5.39929688 -7.51953125 6.15234375 C-10 8 -10 8 -13 9 C-15.6875 7.0625 -15.6875 7.0625 -18 5 C-14.535 4.505 -14.535 4.505 -11 4 C-11 3.34 -11 2.68 -11 2 C-9.73392393 1.46770674 -8.46189588 0.94955456 -7.1875 0.4375 C-6.47980469 0.14746094 -5.77210938 -0.14257812 -5.04296875 -0.44140625 C-3 -1 -3 -1 0 0 Z " fill="#416DA4" transform="translate(455,322)"/>
<path d="M0 0 C0.66 0.33 1.32 0.66 2 1 C1.525625 1.391875 1.05125 1.78375 0.5625 2.1875 C-1.2229746 3.91790343 -1.2229746 3.91790343 -1.296875 6.46875 C-2 9 -2 9 -4.14453125 10.36328125 C-5.02496094 10.67652344 -5.90539062 10.98976563 -6.8125 11.3125 C-7.68519531 11.63863281 -8.55789063 11.96476562 -9.45703125 12.30078125 C-12 13 -12 13 -16 13 C-16 12.34 -16 11.68 -16 11 C-15.02160156 10.56300781 -15.02160156 10.56300781 -14.0234375 10.1171875 C-8.26454707 7.416115 -4.21457494 4.76912427 0 0 Z " fill="#6890BC" transform="translate(302,430)"/>
<path d="M0 0 C-1.60198888 1.46072532 -3.20667116 2.91849716 -4.8125 4.375 C-5.70582031 5.18710937 -6.59914063 5.99921875 -7.51953125 6.8359375 C-10 9 -10 9 -13 11 C-13 10.01 -13 9.02 -13 8 C-13.66 7.67 -14.32 7.34 -15 7 C-13.5433323 5.85204994 -12.08461063 4.70670581 -10.625 3.5625 C-9.40683594 2.60537109 -9.40683594 2.60537109 -8.1640625 1.62890625 C-4.91493732 -0.81673491 -3.84911174 -1.15473352 0 0 Z " fill="#4D78A9" transform="translate(383,456)"/>
<path d="M0 0 C1.32 0 2.64 0 4 0 C4 0.66 4 1.32 4 2 C6.97 2.495 6.97 2.495 10 3 C10.33 2.01 10.66 1.02 11 0 C13.97 2.31 16.94 4.62 20 7 C15.30667112 8.17333222 13.84771322 7.49602298 9.4375 5.75 C7.73400391 5.09257812 7.73400391 5.09257812 5.99609375 4.421875 C3.3494604 3.16584561 1.83826685 2.22423747 0 0 Z " fill="#5478A6" transform="translate(213,310)"/>
<path d="M0 0 C0.33 0 0.66 0 1 0 C1.19809173 19.17087715 1.19809173 19.17087715 0 26 C-0.66 26.66 -1.32 27.32 -2 28 C-2.29032827 18.43529656 -1.46051903 9.42817197 0 0 Z " fill="#5B82AB" transform="translate(333,613)"/>
<path d="M0 0 C4.41309542 3.15221101 7.00793014 6.55463907 10 11 C6.37723685 9.6744419 3.36494652 8.05653045 0.1875 5.875 C-0.60269531 5.33617187 -1.39289063 4.79734375 -2.20703125 4.2421875 C-2.79871094 3.83226562 -3.39039063 3.42234375 -4 3 C-2.68 2.01 -1.36 1.02 0 0 Z " fill="#D0DCEA" transform="translate(279,293)"/>
<path d="M0 0 C1.2433165 3.64086451 0.80879753 6.53136133 0.22265625 10.296875 C-0.05288086 12.10478516 -0.05288086 12.10478516 -0.33398438 13.94921875 C-0.53314453 15.20347656 -0.73230469 16.45773437 -0.9375 17.75 C-1.13279297 19.01972656 -1.32808594 20.28945313 -1.52929688 21.59765625 C-2.01255218 24.73292236 -2.50304652 27.8668809 -3 31 C-3.33 31 -3.66 31 -4 31 C-4.22566098 29.62773731 -4.42959874 28.25189728 -4.625 26.875 C-4.79902344 25.72644531 -4.79902344 25.72644531 -4.9765625 24.5546875 C-5.00594535 21.35195647 -4.05637986 19.02242015 -3 16 C-2.37093814 13.22375863 -1.87166217 10.42759366 -1.375 7.625 C-1.2409375 6.88894531 -1.106875 6.15289063 -0.96875 5.39453125 C-0.64193673 3.59705828 -0.32041989 1.79862367 0 0 Z " fill="#6F91B8" transform="translate(341,549)"/>
<path d="M0 0 C3.15353333 4.2047111 3.36246719 4.85091857 3.1875 9.75 C3.16042969 10.73484375 3.13335937 11.7196875 3.10546875 12.734375 C3.07066406 13.48203125 3.03585937 14.2296875 3 15 C2.01 15 1.02 15 0 15 C0 10.05 0 5.1 0 0 Z " fill="#C2D1E0" transform="translate(330,635)"/>
<path d="M0 0 C2.45823172 3.68734758 3.01242616 6.69699971 4 11 C0.18315774 9.44499019 -2.19195732 6.96404505 -5 4 C-3.35 4 -1.7 4 0 4 C0 2.68 0 1.36 0 0 Z " fill="#BDCDDE" transform="translate(314,297)"/>
<path d="M0 0 C0.33 0.66 0.66 1.32 1 2 C0.0625 4.125 0.0625 4.125 -1 6 C-0.34 6.33 0.32 6.66 1 7 C-0.28524261 7.86380259 -1.57842419 8.71580369 -2.875 9.5625 C-3.59429687 10.03816406 -4.31359375 10.51382812 -5.0546875 11.00390625 C-5.69664062 11.33261719 -6.33859375 11.66132813 -7 12 C-7.66 11.67 -8.32 11.34 -9 11 C-6.03 7.37 -3.06 3.74 0 0 Z " fill="#D1DCE8" transform="translate(382,292)"/>
<path d="M0 0 C2.84550012 0.66010476 5.52325999 1.51724966 8.25 2.5625 C8.95640625 2.83191406 9.6628125 3.10132813 10.390625 3.37890625 C10.92171875 3.58386719 11.4528125 3.78882813 12 4 C11.01 4.495 11.01 4.495 10 5 C10.33 6.32 10.66 7.64 11 9 C6.90784086 6.71320518 3.50049752 4.09346293 0 1 C0 0.67 0 0.34 0 0 Z " fill="#597CA8" transform="translate(210,321)"/>
<path d="M0 0 C-2.64 1.98 -5.28 3.96 -8 6 C-8 5.34 -8 4.68 -8 4 C-8.66 3.67 -9.32 3.34 -10 3 C-4.5 -1.125 -4.5 -1.125 0 0 Z " fill="#6388B4" transform="translate(383,456)"/>
<path d="M0 0 C-2.64 1.98 -5.28 3.96 -8 6 C-8 5.01 -8 4.02 -8 3 C-8.99 2.67 -9.98 2.34 -11 2 C-9.73392393 1.46770674 -8.46189588 0.94955456 -7.1875 0.4375 C-6.47980469 0.14746094 -5.77210938 -0.14257812 -5.04296875 -0.44140625 C-3 -1 -3 -1 0 0 Z " fill="#6A8EB9" transform="translate(455,322)"/>
<path d="M0 0 C0 0.33 0 0.66 0 1 C-4.76307437 1.95261487 -9.1666528 2.08333357 -14 2 C-14.33 1.34 -14.66 0.68 -15 0 C-9.65370398 -1.0024305 -5.37625234 -0.84888195 0 0 Z " fill="#4E78A7" transform="translate(524,261)"/>
<path d="M0 0 C3.4297456 0.63513807 6.70466931 1.87659181 10 3 C10 3.66 10 4.32 10 5 C5.44262737 4.56179109 2.42346555 4.14958831 -1 1 C-0.67 0.67 -0.34 0.34 0 0 Z " fill="#7A97BC" transform="translate(365,438)"/>
<path d="M0 0 C0.66 0.33 1.32 0.66 2 1 C1.030625 1.804375 0.06125 2.60875 -0.9375 3.4375 C-4.33901582 6.77498729 -4.76208999 9.59421783 -4.9921875 14.2421875 C-4.99476563 14.82226562 -4.99734375 15.40234375 -5 16 C-5.33 16 -5.66 16 -6 16 C-6.92017937 6.26995516 -6.92017937 6.26995516 -4.6640625 3.15625 C-3 1.8125 -3 1.8125 0 0 Z " fill="#D5DEEA" transform="translate(417,165)"/>
<path d="M0 0 C0.66 0.33 1.32 0.66 2 1 C1.2884375 1.5878125 1.2884375 1.5878125 0.5625 2.1875 C-1.35179633 4.40808374 -1.61266988 6.13375709 -2 9 C-2.99 9 -3.98 9 -5 9 C-4.5206753 4.68607774 -3.2542015 2.83430453 0 0 Z " fill="#5680B0" transform="translate(302,430)"/>
<path d="M0 0 C0.66 0 1.32 0 2 0 C2.33 3.3 2.66 6.6 3 10 C1 7 1 7 0 5 C-0.66 5.99 -1.32 6.98 -2 8 C-1.125 1.125 -1.125 1.125 0 0 Z " fill="#A0B6D1" transform="translate(330,376)"/>
<path d="M0 0 C-0.99 1.485 -0.99 1.485 -2 3 C-1.01 3.33 -0.02 3.66 1 4 C-5.75 3.125 -5.75 3.125 -8 2 C-8 1.34 -8 0.68 -8 0 C-2.25 -1.125 -2.25 -1.125 0 0 Z " fill="#BBCCDE" transform="translate(367,325)"/>
<path d="M0 0 C4.75 0.75 4.75 0.75 7 3 C7.33 3.99 7.66 4.98 8 6 C5.0280615 4.87548273 2.66559313 3.77706209 0 2 C0 1.34 0 0.68 0 0 Z " fill="#C7D4E3" transform="translate(375,343)"/>
<path d="M0 0 C1.8871875 0.061875 1.8871875 0.061875 3.8125 0.125 C3.4825 0.785 3.1525 1.445 2.8125 2.125 C0.52734375 2.7578125 0.52734375 2.7578125 -2.25 3.25 C-3.16910156 3.41757812 -4.08820313 3.58515625 -5.03515625 3.7578125 C-6.10056641 3.93957031 -6.10056641 3.93957031 -7.1875 4.125 C-7.1875 3.465 -7.1875 2.805 -7.1875 2.125 C-4.09861478 0.06574319 -3.47814073 -0.1140374 0 0 Z " fill="#7996BC" transform="translate(437.1875,314.875)"/>
<path d="M0 0 C1.32 0 2.64 0 4 0 C2.70700306 2.88437779 1.34058637 4.87219421 -1 7 C-1.04254356 5.00045254 -1.04080783 2.99958364 -1 1 C-0.67 0.67 -0.34 0.34 0 0 Z " fill="#C3D3E3" transform="translate(466,272)"/>
<path d="M0 0 C0.66 1.32 1.32 2.64 2 4 C0.68 5.32 -0.64 6.64 -2 8 C-2.33 7.34 -2.66 6.68 -3 6 C-2.06553465 3.96855359 -1.06775224 1.96466413 0 0 Z " fill="#6087B4" transform="translate(321,402)"/>
<path d="M0 0 C1.32 0 2.64 0 4 0 C4 0.99 4 1.98 4 3 C1.5 4.6875 1.5 4.6875 -1 6 C-0.67 4.02 -0.34 2.04 0 0 Z " fill="#D4DEE9" transform="translate(345,301)"/>
<path d="M0 0 C0.99 0.33 1.98 0.66 3 1 C4.04449911 4.13349732 3.93423645 4.98968256 3 8 C1.02 8 -0.96 8 -3 8 C-3 7.67 -3 7.34 -3 7 C-1.35 7 0.3 7 2 7 C1.34 4.69 0.68 2.38 0 0 Z " fill="#7F9FC0" transform="translate(159,241)"/>
</svg>
